<?xml version="1.0" standalone="no"?>
<!DOCTYPE svg PUBLIC "-//W3C//DTD SVG 20010904//EN"
 "http://www.w3.org/TR/2001/REC-SVG-20010904/DTD/svg10.dtd">
<svg version="1.0" xmlns="http://www.w3.org/2000/svg"
 width="500.000000pt" height="500.000000pt" viewBox="0 0 500.000000 500.000000"
 preserveAspectRatio="xMidYMid meet">

<g transform="translate(0.000000,500.000000) scale(0.100000,-0.100000)"
fill="#000000" stroke="none">
<path d="M0 2500 l0 -2500 2500 0 2500 0 0 2500 0 2500 -2500 0 -2500 0 0
-2500z m3185 945 c202 -53 367 -216 430 -425 38 -129 29 -330 -24 -500 -18
-58 -18 -59 0 -76 27 -24 25 -75 -5 -103 -24 -22 -24 -23 -5 -42 27 -27 24
-75 -6 -104 -13 -14 -20 -25 -15 -25 6 0 19 -9 30 -20 28 -28 26 -75 -5 -106
-25 -25 -28 -26 -152 -22 l-126 3 -56 -59 c-81 -84 -263 -228 -353 -278 -43
-24 -78 -50 -78 -58 -1 -48 -26 -99 -70 -142 -149 -144 -381 -48 -383 160 -1
135 102 228 244 220 53 -3 73 -9 102 -31 20 -15 44 -27 53 -27 16 0 148 96
239 174 31 27 37 37 28 47 -9 9 -19 9 -40 1 -15 -6 -63 -10 -106 -10 -78 1
-78 1 -108 -34 -16 -20 -48 -46 -72 -57 -42 -20 -56 -21 -577 -21 -521 0 -535
1 -577 21 -46 22 -100 80 -109 117 -6 21 -24 32 -24 13 0 -12 -66 -37 -121
-45 -92 -13 -196 30 -239 99 -74 120 -32 278 88 333 102 47 247 28 278 -36
l11 -22 19 21 c54 59 175 81 256 45 64 -28 67 -22 32 52 -54 113 -75 189 -81
297 -7 122 6 191 54 287 66 132 227 261 387 310 59 18 85 20 195 15 91 -3 145
-11 196 -27 71 -23 216 -92 288 -137 31 -19 54 -25 111 -27 120 -3 198 -65
227 -178 30 -125 -62 -256 -192 -274 -89 -12 -189 39 -231 118 -18 36 -22 59
-23 137 l0 93 -43 38 c-89 79 -274 135 -427 128 -163 -7 -263 -75 -342 -231
-61 -122 -77 -251 -48 -391 14 -67 58 -192 73 -208 4 -4 31 0 61 8 58 15 118
10 163 -12 36 -19 88 -18 116 2 19 13 22 24 22 84 l0 68 -94 4 c-52 1 -97 5
-100 8 -3 3 -6 45 -8 94 -4 114 2 119 119 110 l83 -7 0 102 0 101 105 0 104 0
3 -97 3 -98 98 -3 97 -3 0 -104 0 -105 -100 0 -100 0 0 -74 0 -74 31 -11 c45
-16 104 -14 119 4 15 18 78 19 101 2 9 -7 23 -26 32 -43 9 -17 23 -37 32 -44
26 -21 55 -86 56 -122 0 -18 4 -42 9 -53 6 -13 9 15 9 80 1 114 14 170 41 185
28 15 96 12 110 -5 10 -12 15 -12 35 1 18 12 56 14 184 13 89 -1 166 2 170 7
16 18 62 148 82 228 88 368 -41 631 -351 713 -71 18 -306 24 -414 10 -33 -4
-58 -6 -55 -3 3 4 116 24 224 40 58 8 250 -3 310 -19z m-1739 -2053 c6 -4 14
-14 17 -22 4 -12 6 -12 6 2 1 23 46 34 67 18 11 -10 18 -10 26 -2 7 7 38 12
69 12 64 0 85 -15 75 -54 -9 -36 10 -41 24 -7 16 39 44 64 67 59 10 -2 30 -26
45 -53 l28 -50 0 40 c0 47 14 65 47 65 26 0 43 -32 43 -81 0 -22 5 -29 19 -29
36 0 51 -12 51 -40 0 -36 -14 -41 -118 -39 -55 2 -86 6 -93 16 -6 7 -19 13
-29 13 -10 0 -23 -6 -29 -13 -14 -17 -163 -22 -192 -6 -15 7 -24 7 -35 -1 -19
-16 -64 -4 -65 18 -1 16 -2 16 -6 0 -6 -23 -49 -34 -68 -18 -19 16 -21 150 -3
168 13 13 37 15 54 4z m785 -9 c14 -12 17 -12 22 2 8 20 41 19 61 -1 19 -18
22 -124 6 -155 -13 -23 -55 -25 -68 -3 -8 14 -10 14 -21 0 -32 -39 -71 -11
-71 51 0 32 -4 43 -15 43 -11 0 -15 -12 -15 -44 0 -51 -18 -71 -55 -62 -22 6
-25 11 -25 54 0 39 -4 49 -22 57 -27 12 -35 40 -17 61 17 20 196 18 220 -3z
m294 11 c8 -4 24 -24 35 -46 18 -38 18 -40 0 -82 -20 -47 -34 -56 -86 -56 -51
0 -74 28 -74 92 0 39 5 57 22 75 21 23 67 30 103 17z m259 -15 c20 -16 26 -17
26 -6 0 20 22 27 85 27 63 0 80 -15 70 -62 -5 -28 -4 -31 7 -16 7 9 21 30 30
47 12 22 24 31 42 31 21 0 31 -10 55 -57 l30 -58 1 46 c0 54 18 74 55 65 23
-6 25 -11 25 -56 0 -28 5 -50 10 -50 6 0 10 20 10 44 0 24 6 48 13 54 6 5 65
10 131 11 99 2 122 -1 137 -15 18 -16 20 -16 37 -1 22 20 43 22 60 5 18 -18
15 -38 -13 -74 -14 -18 -25 -44 -25 -57 0 -53 -65 -61 -76 -9 -10 45 -27 72
-46 72 -13 0 -18 -8 -18 -29 0 -49 -17 -81 -43 -81 -34 0 -47 19 -47 67 0 32
-4 43 -15 43 -10 0 -15 -10 -15 -29 0 -37 -43 -81 -81 -81 -34 0 -79 19 -79
34 0 6 -7 0 -16 -12 -18 -25 -46 -29 -64 -7 -15 19 -34 19 -49 1 -17 -20 -184
-21 -201 -1 -11 13 -15 13 -33 0 -26 -18 -118 -20 -135 -3 -16 16 -16 150 0
166 20 20 102 15 132 -9z m-166 -288 c11 -14 13 -14 23 2 6 10 20 22 32 26 30
11 46 -13 47 -69 l1 -45 30 58 c26 51 33 58 57 55 19 -2 33 -14 49 -43 18 -31
23 -35 23 -18 0 51 98 83 147 48 19 -13 22 -13 27 0 8 22 53 19 66 -4 5 -11
10 -45 10 -76 0 -31 -5 -65 -10 -76 -13 -23 -58 -26 -66 -4 -5 13 -8 13 -27 0
-25 -17 -80 -20 -107 -5 -13 7 -21 7 -25 0 -9 -15 -41 -12 -59 5 -18 19 -40
19 -55 1 -7 -8 -32 -13 -66 -13 -34 0 -59 5 -66 13 -15 18 -35 18 -43 -1 -9
-24 -55 -19 -67 9 l-11 23 -25 -23 c-32 -29 -81 -31 -115 -5 -24 19 -24 19
-36 0 -15 -23 -45 -25 -63 -3 -11 13 -14 13 -21 0 -11 -19 -113 -19 -129 0
-15 19 -44 18 -59 -1 -18 -22 -53 -15 -65 13 -13 29 -55 30 -62 2 -7 -25 -48
-37 -68 -20 -11 9 -15 32 -15 81 0 89 11 101 94 97 l61 -3 1 -37 c1 -49 8 -56
24 -19 16 39 44 64 67 59 10 -2 30 -26 45 -53 l28 -50 0 41 c0 22 5 45 12 52
17 17 99 15 125 -3 18 -13 22 -13 33 0 14 17 56 20 65 4 4 -5 10 -31 15 -57
l8 -47 1 46 c1 28 7 52 16 59 17 14 65 5 65 -12 0 -7 7 -2 16 10 13 19 18 20
37 10 12 -6 28 -18 35 -27z"/>
<path d="M1210 2429 c-160 -32 -201 -243 -67 -343 47 -35 207 -35 242 0 19 19
21 154 3 172 -12 12 -95 16 -122 6 -35 -14 -11 -64 31 -64 19 0 23 -5 23 -29
0 -33 -27 -45 -78 -35 -51 10 -77 47 -77 110 0 45 4 58 28 81 29 29 26 29 157
20 33 -2 35 0 38 30 3 28 -1 32 -30 42 -54 17 -100 20 -148 10z"/>
<path d="M1566 2429 c-85 -20 -135 -89 -136 -185 0 -68 34 -132 86 -161 54
-31 144 -31 199 0 120 67 110 288 -15 335 -44 16 -94 20 -134 11z m87 -80 c33
-15 50 -50 50 -103 0 -74 -50 -125 -109 -110 -41 10 -64 50 -64 111 0 47 4 59
29 84 31 31 55 36 94 18z"/>
<path d="M1961 2430 c-151 -37 -187 -247 -58 -344 33 -24 130 -33 180 -17 73
24 126 121 113 205 -19 114 -123 183 -235 156z m105 -93 c22 -19 28 -34 31
-78 7 -96 -54 -152 -125 -115 -49 25 -67 108 -37 166 28 54 85 66 131 27z"/>
<path d="M2243 2419 c-9 -9 -13 -58 -13 -170 0 -198 -4 -193 129 -187 168 7
227 61 219 199 -4 77 -23 111 -79 144 -43 25 -236 35 -256 14z m206 -88 c48
-34 51 -122 6 -167 -20 -20 -34 -24 -80 -24 l-55 0 0 103 c0 57 3 107 7 111
12 12 96 -4 122 -23z"/>
<path d="M2633 2423 c-20 -7 -18 -336 1 -352 9 -8 51 -11 121 -9 90 3 110 6
119 21 8 12 8 22 0 35 -9 13 -28 18 -88 20 l-76 3 0 132 c0 90 -4 137 -12 145
-12 12 -43 15 -65 5z"/>
<path d="M2904 2417 c-2 -7 -3 -89 -2 -182 l3 -170 28 -3 c53 -6 57 5 57 182
0 113 -4 166 -12 174 -16 16 -67 15 -74 -1z"/>
<path d="M3046 2415 c-13 -14 -16 -42 -16 -166 0 -85 5 -159 10 -170 7 -12 21
-19 40 -19 38 0 50 23 50 94 l0 55 73 3 72 3 0 30 0 30 -72 3 -73 3 0 39 0 39
78 3 77 3 0 30 0 30 -111 3 c-92 2 -115 0 -128 -13z"/>
<path d="M3322 2418 c-8 -8 -12 -59 -12 -175 0 -150 1 -163 19 -173 23 -12
210 -13 229 -1 8 4 12 19 10 32 -3 23 -7 24 -85 27 l-83 3 0 39 0 39 71 3 c75
3 99 17 86 52 -5 13 -21 16 -82 16 l-75 0 0 40 0 39 83 3 82 3 0 30 0 30 -115
3 c-81 2 -119 -1 -128 -10z"/>
<path d="M1209 2283 c-5 -15 -8 -36 -6 -47 3 -17 5 -16 6 5 1 26 22 51 51 62
8 3 3 6 -13 6 -21 1 -30 -5 -38 -26z"/>
<path d="M1210 2201 c0 -6 4 -13 10 -16 6 -3 7 1 4 9 -7 18 -14 21 -14 7z"/>
<path d="M3170 2159 c0 -5 5 -7 10 -4 6 3 10 8 10 11 0 2 -4 4 -10 4 -5 0 -10
-5 -10 -11z"/>
<path d="M1418 1364 c-11 -11 -10 -112 1 -119 5 -3 11 7 13 22 3 24 8 28 33
28 25 0 30 -4 33 -28 2 -15 8 -25 13 -22 12 8 12 125 -1 125 -5 0 -10 -13 -10
-30 0 -28 -3 -30 -34 -30 -31 0 -35 3 -38 31 -2 17 -6 27 -10 23z"/>
<path d="M1580 1305 l0 -65 50 0 c28 0 50 5 50 10 0 6 -18 10 -40 10 -33 0
-40 3 -40 19 0 16 8 21 43 24 l42 4 -42 1 c-36 2 -43 5 -43 22 0 17 7 20 40
20 22 0 40 5 40 10 0 6 -22 10 -50 10 l-50 0 0 -65z"/>
<path d="M1749 1309 c-29 -58 -32 -94 -5 -56 17 22 81 24 90 2 3 -8 10 -15 16
-15 5 0 -5 29 -22 65 -18 36 -36 65 -40 65 -4 0 -22 -27 -39 -61z m55 5 c9
-23 8 -24 -14 -24 -11 0 -20 2 -20 4 0 12 13 36 20 36 4 0 11 -7 14 -16z"/>
<path d="M1907 1359 c-5 -9 -7 -38 -5 -65 l3 -49 48 -3 c28 -2 47 1 47 7 0 6
-18 11 -40 11 l-39 0 -3 58 c-2 37 -6 51 -11 41z"/>
<path d="M2030 1360 c0 -5 11 -10 25 -10 24 0 25 -3 25 -55 0 -30 5 -55 10
-55 6 0 10 25 10 55 0 52 1 55 25 55 14 0 25 5 25 10 0 6 -27 10 -60 10 -33 0
-60 -4 -60 -10z"/>
<path d="M2190 1305 c0 -64 16 -91 22 -37 3 23 8 27 33 27 25 0 30 -4 33 -28
6 -47 22 -19 22 38 0 57 -16 85 -22 38 -2 -23 -8 -29 -35 -31 -31 -3 -33 -1
-33 27 0 17 -4 31 -10 31 -6 0 -10 -28 -10 -65z"/>
<path d="M2443 1358 c-13 -17 -14 -90 -1 -105 6 -7 23 -13 38 -13 30 0 44 13
53 48 4 19 1 22 -26 22 -38 0 -62 14 -53 29 10 15 53 14 59 -1 2 -7 8 -10 12
-6 4 4 2 14 -5 23 -15 18 -64 20 -77 3z m67 -78 c0 -16 -7 -20 -30 -20 -18 0
-30 5 -30 13 0 20 10 27 37 27 16 0 23 -6 23 -20z"/>
<path d="M2672 1308 l3 -63 38 -3 c54 -5 68 10 63 66 -6 52 -16 62 -69 62
l-38 0 3 -62z m83 27 c0 -5 -15 -11 -32 -13 -25 -3 -33 1 -33 13 0 12 8 16 33
13 17 -2 32 -7 32 -13z m3 -57 c3 -15 -4 -18 -32 -18 -30 0 -36 4 -36 21 0 17
5 20 32 17 22 -2 34 -9 36 -20z"/>
<path d="M2840 1305 l0 -65 50 0 c28 0 50 5 50 10 0 6 -18 10 -40 10 -33 0
-40 3 -40 19 0 15 8 21 38 24 l37 4 -37 1 c-31 2 -38 6 -38 22 0 16 7 20 34
20 19 0 38 5 41 10 4 6 -13 10 -44 10 l-51 0 0 -65z"/>
<path d="M3026 1348 c-28 -44 -50 -98 -42 -105 4 -4 12 0 17 10 7 11 22 17 44
17 22 0 37 -6 44 -17 5 -10 12 -15 16 -11 6 6 -51 128 -60 128 -2 0 -11 -10
-19 -22z m33 -35 c11 -21 9 -23 -13 -23 -24 0 -25 2 -14 25 6 14 12 24 13 23
1 -2 8 -13 14 -25z"/>
<path d="M3160 1325 c0 -51 25 -85 63 -85 37 0 57 30 57 83 0 61 -18 61 -22 1
-6 -88 -70 -88 -76 0 -4 59 -22 60 -22 1z"/>
<path d="M3330 1360 c0 -5 9 -10 20 -10 17 0 20 -7 20 -49 0 -28 5 -53 10 -56
6 -4 10 15 10 49 0 53 1 56 25 56 14 0 25 5 25 10 0 6 -25 10 -55 10 -30 0
-55 -4 -55 -10z"/>
<path d="M3481 1360 c0 -8 8 -26 19 -40 11 -14 20 -35 20 -47 0 -12 5 -25 10
-28 6 -4 10 5 10 20 0 15 12 42 26 61 33 43 22 60 -11 19 l-24 -30 -25 30
c-16 19 -25 24 -25 15z"/>
<path d="M1907 1083 c-11 -10 -8 -111 3 -118 6 -4 10 5 10 19 0 24 4 26 40 26
22 0 40 5 40 10 0 6 -18 10 -40 10 -33 0 -40 3 -40 20 0 17 7 20 40 20 22 0
40 5 40 10 0 11 -83 14 -93 3z"/>
<path d="M2069 1029 c-29 -58 -32 -94 -5 -56 17 22 81 24 90 2 3 -8 10 -15 16
-15 5 0 -5 29 -22 65 -18 36 -36 65 -40 65 -4 0 -22 -27 -39 -61z m55 5 c9
-23 8 -24 -14 -24 -11 0 -20 2 -20 4 0 12 13 36 20 36 4 0 11 -7 14 -16z"/>
<path d="M2227 1083 c-11 -10 -8 -111 2 -118 5 -3 11 5 13 17 4 31 21 32 57 3
29 -25 45 -23 19 3 -9 9 -9 15 0 24 18 18 14 56 -7 68 -22 11 -74 14 -84 3z
m78 -38 c0 -15 -8 -21 -32 -23 -30 -3 -33 -1 -33 23 0 24 3 26 33 23 24 -2 32
-8 32 -23z"/>
<path d="M2385 1077 c-11 -26 2 -90 22 -104 9 -7 27 -13 39 -13 37 0 54 26 54
83 0 62 -17 52 -22 -13 -3 -39 -6 -45 -27 -48 -32 -5 -44 10 -51 66 -5 35 -9
42 -15 29z"/>
<path d="M2567 1084 c-11 -11 -8 -112 3 -119 6 -4 10 8 10 29 0 40 9 46 28 16
16 -27 24 -25 44 8 l17 27 1 -42 c0 -24 5 -43 10 -43 6 0 10 28 10 65 0 36 -3
65 -7 65 -5 0 -19 -17 -32 -37 -22 -34 -25 -36 -35 -19 -22 37 -41 57 -49 50z"/>
<path d="M2769 1029 c-16 -34 -27 -64 -24 -67 4 -4 11 1 16 11 13 23 84 24 93
1 4 -9 9 -14 13 -10 8 8 -47 126 -59 126 -4 0 -22 -27 -39 -61z m61 -11 c0 -4
-11 -8 -25 -8 -23 0 -24 2 -13 26 11 24 13 25 25 8 7 -10 13 -21 13 -26z"/>
<path d="M2924 1076 c-27 -21 -7 -49 40 -57 41 -7 51 -13 41 -28 -8 -15 -58
-14 -73 1 -6 6 -15 8 -19 4 -11 -11 27 -36 55 -36 59 0 88 54 35 66 -47 9 -74
24 -68 34 9 14 58 13 73 -2 9 -9 12 -8 12 4 0 29 -62 38 -96 14z"/>
<path d="M3080 1025 c0 -42 4 -64 10 -60 6 3 10 30 10 60 0 30 -4 57 -10 60
-6 4 -10 -18 -10 -60z"/>
</g>
</svg>
